<mxfile host="app.diagrams.net" agent="Mozilla/5.0 (Windows NT 10.0; Win64; x64) AppleWebKit/537.36 (KHTML, like Gecko) Chrome/131.0.0.0 Safari/537.36" version="26.0.3">
  <diagram name="Page-1" id="Uy16Y7XXzOnVokVlF78-">
    <mxGraphModel dx="1839" dy="532" grid="1" gridSize="10" guides="1" tooltips="1" connect="1" arrows="1" fold="1" page="1" pageScale="1" pageWidth="850" pageHeight="1100" math="0" shadow="0">
      <root>
        <mxCell id="0" />
        <mxCell id="1" parent="0" />
        <mxCell id="iPVtUgnMeCizCRLsn6B8-1" value="&lt;b&gt;&lt;font style=&quot;font-size: 14px;&quot;&gt;Statefulset&lt;/font&gt;&lt;/b&gt;" style="rounded=1;arcSize=10;whiteSpace=wrap;html=1;align=center;fillColor=#dae8fc;strokeColor=#6c8ebf;" parent="1" vertex="1">
          <mxGeometry x="-60" y="160" width="100" height="40" as="geometry" />
        </mxCell>
        <mxCell id="iPVtUgnMeCizCRLsn6B8-2" value="&lt;b&gt;&lt;font style=&quot;font-size: 14px;&quot;&gt;Pod&lt;/font&gt;&lt;/b&gt;" style="rounded=1;arcSize=10;whiteSpace=wrap;html=1;align=center;fillColor=#d5e8d4;strokeColor=#82b366;" parent="1" vertex="1">
          <mxGeometry x="260" y="160" width="100" height="40" as="geometry" />
        </mxCell>
        <mxCell id="iPVtUgnMeCizCRLsn6B8-3" value="&lt;b&gt;&lt;font style=&quot;font-size: 14px;&quot;&gt;Service/&lt;/font&gt;&lt;/b&gt;&lt;div&gt;&lt;b&gt;&lt;font style=&quot;font-size: 14px;&quot;&gt;ClusterIP&lt;/font&gt;&lt;/b&gt;&lt;/div&gt;" style="rounded=1;arcSize=10;whiteSpace=wrap;html=1;align=center;fillColor=#ffe6cc;strokeColor=#d79b00;" parent="1" vertex="1">
          <mxGeometry x="100" y="160" width="100" height="40" as="geometry" />
        </mxCell>
        <mxCell id="iPVtUgnMeCizCRLsn6B8-4" value="" style="rounded=1;whiteSpace=wrap;html=1;" parent="1" vertex="1">
          <mxGeometry x="-60" y="240" width="840" height="320" as="geometry" />
        </mxCell>
        <mxCell id="iPVtUgnMeCizCRLsn6B8-5" value="&lt;b&gt;&lt;font style=&quot;font-size: 14px;&quot;&gt;kafka-controller&lt;/font&gt;&lt;/b&gt;" style="rounded=1;arcSize=10;whiteSpace=wrap;html=1;align=center;fillColor=#dae8fc;strokeColor=#6c8ebf;" parent="1" vertex="1">
          <mxGeometry x="240" y="260" width="100" height="40" as="geometry" />
        </mxCell>
        <mxCell id="iPVtUgnMeCizCRLsn6B8-6" value="&lt;b&gt;&lt;font style=&quot;font-size: 14px;&quot;&gt;kafka-controller-2&lt;/font&gt;&lt;/b&gt;" style="rounded=1;arcSize=10;whiteSpace=wrap;html=1;align=center;fillColor=#d5e8d4;strokeColor=#82b366;" parent="1" vertex="1">
          <mxGeometry x="520" y="360" width="100" height="40" as="geometry" />
        </mxCell>
        <mxCell id="iPVtUgnMeCizCRLsn6B8-7" value="&lt;b&gt;&lt;font style=&quot;font-size: 14px;&quot;&gt;kafka-controller-1&lt;/font&gt;&lt;/b&gt;" style="rounded=1;arcSize=10;whiteSpace=wrap;html=1;align=center;fillColor=#d5e8d4;strokeColor=#82b366;" parent="1" vertex="1">
          <mxGeometry x="240" y="360" width="100" height="40" as="geometry" />
        </mxCell>
        <mxCell id="iPVtUgnMeCizCRLsn6B8-8" value="&lt;b&gt;&lt;font style=&quot;font-size: 14px;&quot;&gt;kafka-controller-0&lt;/font&gt;&lt;/b&gt;" style="rounded=1;arcSize=10;whiteSpace=wrap;html=1;align=center;fillColor=#d5e8d4;strokeColor=#82b366;" parent="1" vertex="1">
          <mxGeometry x="-40" y="360" width="100" height="40" as="geometry" />
        </mxCell>
        <mxCell id="iPVtUgnMeCizCRLsn6B8-12" value="10.244.1.33" style="text;html=1;align=center;verticalAlign=middle;whiteSpace=wrap;rounded=0;" parent="1" vertex="1">
          <mxGeometry x="-40" y="400" width="100" height="20" as="geometry" />
        </mxCell>
        <mxCell id="iPVtUgnMeCizCRLsn6B8-13" value="10.244.2.18" style="text;html=1;align=center;verticalAlign=middle;whiteSpace=wrap;rounded=0;" parent="1" vertex="1">
          <mxGeometry x="240" y="400" width="100" height="20" as="geometry" />
        </mxCell>
        <mxCell id="iPVtUgnMeCizCRLsn6B8-14" value="10.244.1.23" style="text;html=1;align=center;verticalAlign=middle;whiteSpace=wrap;rounded=0;" parent="1" vertex="1">
          <mxGeometry x="520" y="400" width="100" height="20" as="geometry" />
        </mxCell>
        <mxCell id="iPVtUgnMeCizCRLsn6B8-17" value="" style="edgeStyle=elbowEdgeStyle;elbow=vertical;endArrow=classic;html=1;curved=0;rounded=0;endSize=8;startSize=8;" parent="1" target="iPVtUgnMeCizCRLsn6B8-8" edge="1">
          <mxGeometry width="50" height="50" relative="1" as="geometry">
            <mxPoint x="290" y="300" as="sourcePoint" />
            <mxPoint x="240" y="350" as="targetPoint" />
          </mxGeometry>
        </mxCell>
        <mxCell id="iPVtUgnMeCizCRLsn6B8-18" value="" style="edgeStyle=elbowEdgeStyle;elbow=vertical;endArrow=classic;html=1;curved=0;rounded=0;endSize=8;startSize=8;entryX=0.5;entryY=0;entryDx=0;entryDy=0;exitX=0.5;exitY=1;exitDx=0;exitDy=0;" parent="1" source="iPVtUgnMeCizCRLsn6B8-5" target="iPVtUgnMeCizCRLsn6B8-6" edge="1">
          <mxGeometry width="50" height="50" relative="1" as="geometry">
            <mxPoint x="300" y="310" as="sourcePoint" />
            <mxPoint x="160" y="370" as="targetPoint" />
          </mxGeometry>
        </mxCell>
        <mxCell id="iPVtUgnMeCizCRLsn6B8-19" value="" style="endArrow=classic;html=1;rounded=0;entryX=0.5;entryY=0;entryDx=0;entryDy=0;exitX=0.5;exitY=1;exitDx=0;exitDy=0;" parent="1" source="iPVtUgnMeCizCRLsn6B8-5" target="iPVtUgnMeCizCRLsn6B8-7" edge="1">
          <mxGeometry width="50" height="50" relative="1" as="geometry">
            <mxPoint x="400" y="320" as="sourcePoint" />
            <mxPoint x="450" y="270" as="targetPoint" />
          </mxGeometry>
        </mxCell>
        <mxCell id="iPVtUgnMeCizCRLsn6B8-22" value="&lt;b&gt;&lt;font style=&quot;font-size: 14px;&quot;&gt;kafka&lt;/font&gt;&lt;/b&gt;" style="rounded=1;arcSize=10;whiteSpace=wrap;html=1;align=center;fillColor=#ffe6cc;strokeColor=#d79b00;" parent="1" vertex="1">
          <mxGeometry x="170" y="470" width="100" height="40" as="geometry" />
        </mxCell>
        <mxCell id="iPVtUgnMeCizCRLsn6B8-23" value="" style="edgeStyle=elbowEdgeStyle;elbow=vertical;endArrow=classic;html=1;curved=0;rounded=0;endSize=8;startSize=8;entryX=0.5;entryY=0;entryDx=0;entryDy=0;exitX=0.5;exitY=1;exitDx=0;exitDy=0;" parent="1" source="iPVtUgnMeCizCRLsn6B8-14" target="iPVtUgnMeCizCRLsn6B8-22" edge="1">
          <mxGeometry width="50" height="50" relative="1" as="geometry">
            <mxPoint x="450" y="400" as="sourcePoint" />
            <mxPoint x="400" y="450" as="targetPoint" />
          </mxGeometry>
        </mxCell>
        <mxCell id="iPVtUgnMeCizCRLsn6B8-24" value="" style="edgeStyle=elbowEdgeStyle;elbow=vertical;endArrow=classic;html=1;curved=0;rounded=0;endSize=8;startSize=8;entryX=0.5;entryY=0;entryDx=0;entryDy=0;exitX=0.5;exitY=1;exitDx=0;exitDy=0;" parent="1" source="iPVtUgnMeCizCRLsn6B8-12" target="iPVtUgnMeCizCRLsn6B8-22" edge="1">
          <mxGeometry width="50" height="50" relative="1" as="geometry">
            <mxPoint x="440" y="430" as="sourcePoint" />
            <mxPoint x="300" y="490" as="targetPoint" />
          </mxGeometry>
        </mxCell>
        <mxCell id="iPVtUgnMeCizCRLsn6B8-26" value="10.98.209.189:&lt;div&gt;9092/TCP&lt;/div&gt;" style="text;html=1;align=center;verticalAlign=middle;whiteSpace=wrap;rounded=0;" parent="1" vertex="1">
          <mxGeometry x="170" y="510" width="100" height="30" as="geometry" />
        </mxCell>
        <mxCell id="iPVtUgnMeCizCRLsn6B8-31" value="&lt;b&gt;&lt;font style=&quot;font-size: 14px;&quot;&gt;kafka-controller-hl&lt;/font&gt;&lt;/b&gt;" style="rounded=1;arcSize=10;whiteSpace=wrap;html=1;align=center;fillColor=#ffe6cc;strokeColor=#d79b00;" parent="1" vertex="1">
          <mxGeometry x="310" y="470" width="100" height="40" as="geometry" />
        </mxCell>
        <mxCell id="iPVtUgnMeCizCRLsn6B8-32" value="" style="edgeStyle=elbowEdgeStyle;elbow=vertical;endArrow=classic;html=1;curved=0;rounded=0;endSize=8;startSize=8;entryX=0.5;entryY=0;entryDx=0;entryDy=0;exitX=0.5;exitY=1;exitDx=0;exitDy=0;" parent="1" source="iPVtUgnMeCizCRLsn6B8-13" target="iPVtUgnMeCizCRLsn6B8-22" edge="1">
          <mxGeometry width="50" height="50" relative="1" as="geometry">
            <mxPoint x="440" y="430" as="sourcePoint" />
            <mxPoint x="230" y="480" as="targetPoint" />
          </mxGeometry>
        </mxCell>
        <mxCell id="iPVtUgnMeCizCRLsn6B8-33" value="" style="edgeStyle=elbowEdgeStyle;elbow=vertical;endArrow=classic;html=1;curved=0;rounded=0;endSize=8;startSize=8;entryX=0.5;entryY=0;entryDx=0;entryDy=0;exitX=0.5;exitY=1;exitDx=0;exitDy=0;" parent="1" source="iPVtUgnMeCizCRLsn6B8-12" target="iPVtUgnMeCizCRLsn6B8-31" edge="1">
          <mxGeometry width="50" height="50" relative="1" as="geometry">
            <mxPoint x="280" y="430" as="sourcePoint" />
            <mxPoint x="350" y="480" as="targetPoint" />
          </mxGeometry>
        </mxCell>
        <mxCell id="iPVtUgnMeCizCRLsn6B8-34" value="" style="edgeStyle=elbowEdgeStyle;elbow=vertical;endArrow=classic;html=1;curved=0;rounded=0;endSize=8;startSize=8;entryX=0.5;entryY=0;entryDx=0;entryDy=0;exitX=0.5;exitY=1;exitDx=0;exitDy=0;" parent="1" source="iPVtUgnMeCizCRLsn6B8-13" target="iPVtUgnMeCizCRLsn6B8-31" edge="1">
          <mxGeometry width="50" height="50" relative="1" as="geometry">
            <mxPoint x="160" y="430" as="sourcePoint" />
            <mxPoint x="370" y="480" as="targetPoint" />
          </mxGeometry>
        </mxCell>
        <mxCell id="iPVtUgnMeCizCRLsn6B8-35" value="" style="edgeStyle=elbowEdgeStyle;elbow=vertical;endArrow=classic;html=1;curved=0;rounded=0;endSize=8;startSize=8;entryX=0.5;entryY=0;entryDx=0;entryDy=0;exitX=0.5;exitY=1;exitDx=0;exitDy=0;" parent="1" source="iPVtUgnMeCizCRLsn6B8-14" target="iPVtUgnMeCizCRLsn6B8-31" edge="1">
          <mxGeometry width="50" height="50" relative="1" as="geometry">
            <mxPoint x="440" y="430" as="sourcePoint" />
            <mxPoint x="230" y="480" as="targetPoint" />
          </mxGeometry>
        </mxCell>
        <mxCell id="iPVtUgnMeCizCRLsn6B8-36" value="9092/TCP&lt;div&gt;9093/TCP&lt;/div&gt;&lt;div&gt;9094/TCP&lt;/div&gt;" style="text;html=1;align=center;verticalAlign=middle;whiteSpace=wrap;rounded=0;" parent="1" vertex="1">
          <mxGeometry x="310" y="510" width="100" height="50" as="geometry" />
        </mxCell>
        <mxCell id="iPVtUgnMeCizCRLsn6B8-37" value="&lt;span style=&quot;font-size: 14px;&quot;&gt;&lt;b&gt;Persistent&lt;/b&gt;&lt;/span&gt;&lt;div&gt;&lt;span style=&quot;font-size: 14px;&quot;&gt;&lt;b&gt;VolumeClaim&lt;/b&gt;&lt;/span&gt;&lt;/div&gt;" style="rounded=1;arcSize=10;whiteSpace=wrap;html=1;align=center;fillColor=#fff2cc;strokeColor=#d6b656;" parent="1" vertex="1">
          <mxGeometry x="420" y="160" width="100" height="40" as="geometry" />
        </mxCell>
        <mxCell id="iPVtUgnMeCizCRLsn6B8-38" value="&lt;span style=&quot;font-size: 14px;&quot;&gt;&lt;b&gt;data-kafka-controller-0&lt;/b&gt;&lt;/span&gt;" style="rounded=1;arcSize=10;whiteSpace=wrap;html=1;align=center;fillColor=#fff2cc;strokeColor=#d6b656;" parent="1" vertex="1">
          <mxGeometry x="100" y="360" width="100" height="40" as="geometry" />
        </mxCell>
        <mxCell id="iPVtUgnMeCizCRLsn6B8-39" value="" style="endArrow=classic;html=1;rounded=0;entryX=0;entryY=0.5;entryDx=0;entryDy=0;exitX=1;exitY=0.5;exitDx=0;exitDy=0;" parent="1" source="iPVtUgnMeCizCRLsn6B8-8" target="iPVtUgnMeCizCRLsn6B8-38" edge="1">
          <mxGeometry width="50" height="50" relative="1" as="geometry">
            <mxPoint x="-150" y="420" as="sourcePoint" />
            <mxPoint x="-100" y="370" as="targetPoint" />
          </mxGeometry>
        </mxCell>
        <mxCell id="iPVtUgnMeCizCRLsn6B8-40" value="&lt;span style=&quot;font-size: 14px;&quot;&gt;&lt;b&gt;data-kafka-controller-1&lt;/b&gt;&lt;/span&gt;" style="rounded=1;arcSize=10;whiteSpace=wrap;html=1;align=center;fillColor=#fff2cc;strokeColor=#d6b656;" parent="1" vertex="1">
          <mxGeometry x="380" y="360" width="100" height="40" as="geometry" />
        </mxCell>
        <mxCell id="iPVtUgnMeCizCRLsn6B8-41" value="&lt;span style=&quot;font-size: 14px;&quot;&gt;&lt;b&gt;data-kafka-controller-2&lt;/b&gt;&lt;/span&gt;" style="rounded=1;arcSize=10;whiteSpace=wrap;html=1;align=center;fillColor=#fff2cc;strokeColor=#d6b656;" parent="1" vertex="1">
          <mxGeometry x="660" y="360" width="100" height="40" as="geometry" />
        </mxCell>
        <mxCell id="iPVtUgnMeCizCRLsn6B8-42" value="" style="endArrow=classic;html=1;rounded=0;entryX=0;entryY=0.5;entryDx=0;entryDy=0;exitX=1;exitY=0.5;exitDx=0;exitDy=0;" parent="1" source="iPVtUgnMeCizCRLsn6B8-7" target="iPVtUgnMeCizCRLsn6B8-40" edge="1">
          <mxGeometry width="50" height="50" relative="1" as="geometry">
            <mxPoint x="70" y="390" as="sourcePoint" />
            <mxPoint x="110" y="390" as="targetPoint" />
          </mxGeometry>
        </mxCell>
        <mxCell id="iPVtUgnMeCizCRLsn6B8-43" value="" style="endArrow=classic;html=1;rounded=0;entryX=0;entryY=0.5;entryDx=0;entryDy=0;exitX=1;exitY=0.5;exitDx=0;exitDy=0;" parent="1" source="iPVtUgnMeCizCRLsn6B8-6" target="iPVtUgnMeCizCRLsn6B8-41" edge="1">
          <mxGeometry width="50" height="50" relative="1" as="geometry">
            <mxPoint x="650" y="430" as="sourcePoint" />
            <mxPoint x="690" y="430" as="targetPoint" />
          </mxGeometry>
        </mxCell>
        <mxCell id="zK8e5WB0SnUrSjYimZk5-1" value="50 GiB" style="text;html=1;align=center;verticalAlign=middle;whiteSpace=wrap;rounded=0;" vertex="1" parent="1">
          <mxGeometry x="100" y="400" width="100" height="20" as="geometry" />
        </mxCell>
        <mxCell id="zK8e5WB0SnUrSjYimZk5-2" value="50 GiB" style="text;html=1;align=center;verticalAlign=middle;whiteSpace=wrap;rounded=0;" vertex="1" parent="1">
          <mxGeometry x="380" y="400" width="100" height="20" as="geometry" />
        </mxCell>
        <mxCell id="zK8e5WB0SnUrSjYimZk5-3" value="50 GiB" style="text;html=1;align=center;verticalAlign=middle;whiteSpace=wrap;rounded=0;" vertex="1" parent="1">
          <mxGeometry x="660" y="400" width="100" height="20" as="geometry" />
        </mxCell>
      </root>
    </mxGraphModel>
  </diagram>
</mxfile>
